<svg xmlns="http://www.w3.org/2000/svg" viewBox="0 0 100 100"><title>listicon</title><path d="M7.14,0H92.86A7.16,7.16,0,0,1,100,7.14h0a7.17,7.17,0,0,1-7.14,7.15H7.14A7.17,7.17,0,0,1,0,7.14H0A7.16,7.16,0,0,1,7.14,0Zm0,85.71H92.86A7.17,7.17,0,0,1,100,92.86h0A7.16,7.16,0,0,1,92.86,100H7.14A7.16,7.16,0,0,1,0,92.86H0A7.17,7.17,0,0,1,7.14,85.71Zm0-57.14H92.86A7.16,7.16,0,0,1,100,35.71h0a7.16,7.16,0,0,1-7.14,7.14H7.14A7.16,7.16,0,0,1,0,35.72H0A7.16,7.16,0,0,1,7.14,28.57Zm0,28.57H92.86A7.17,7.17,0,0,1,100,64.29h0a7.16,7.16,0,0,1-7.14,7.14H7.14A7.16,7.16,0,0,1,0,64.29H0A7.17,7.17,0,0,1,7.14,57.14Z" transform="translate(0)"/></svg>